# Blender 4.0.2
# www.blender.org
mtllib Sewer_Floor_T.mtl
o Sewer_Floor_T
v 7.058574 -0.568466 9.999998
v 7.331017 -0.214291 9.999998
v 7.443038 -0.214291 7.438203
v 7.526764 -0.062765 9.999998
v 7.766216 0.000000 9.999998
v 10.000000 0.000000 10.000000
v 10.000000 -0.568466 7.058575
v 10.000000 0.000000 7.766216
v 10.000000 -0.214292 7.331018
v 10.000000 -0.062765 7.526765
v 7.766216 0.000000 7.766216
v 7.766216 -0.568466 7.058574
v 7.295848 -0.568466 7.301981
v 7.766216 -0.214292 7.331017
v 7.766216 -0.062765 7.526764
v 7.058575 -0.568466 7.766214
v 7.331018 -0.214291 7.766214
v 7.526764 -0.062765 7.766214
v 7.561965 -0.068961 7.556436
v -9.999998 -0.568466 7.058575
v -9.999998 -0.214291 7.331018
v -7.438204 -0.214291 7.443038
v -9.999998 -0.062765 7.526765
v -9.999998 0.000000 7.766217
v -10.000000 0.000000 10.000000
v -7.058576 -0.568466 10.000000
v -7.766216 0.000000 10.000000
v -7.331019 -0.214292 10.000000
v -7.526765 -0.062765 10.000000
v -7.766216 0.000000 7.766217
v -7.058575 -0.568466 7.766217
v -7.301982 -0.568466 7.295849
v -7.331018 -0.214292 7.766217
v -7.526764 -0.062765 7.766217
v -7.766215 -0.568466 7.058575
v -7.766215 -0.214291 7.331018
v -7.766215 -0.062765 7.526765
v -7.556437 -0.068961 7.561966
v -10.000000 0.000000 -10.000000
v 10.000000 0.000000 -10.000000
v -10.000000 -0.568466 -7.058575
v 10.000000 -0.568466 -7.058575
v -10.000000 -0.214291 -7.331018
v -10.000000 0.000000 -7.766216
v -10.000000 -0.062765 -7.526764
v 10.000000 0.000000 -7.766216
v 10.000000 -0.214292 -7.331018
v 10.000000 -0.062765 -7.526764
vn -0.1278 0.9918 -0.0000
vn -0.0000 1.0000 -0.0000
vn -0.0000 0.9918 -0.1278
vn -0.1047 0.9890 -0.1045
vn -0.0000 0.7060 -0.7082
vn -0.0000 0.6097 -0.7926
vn -0.1577 0.5793 -0.7997
vn -0.1376 0.6735 -0.7262
vn -0.0000 0.8971 -0.4418
vn -0.0635 0.8864 -0.4585
vn -0.4417 0.8971 -0.0000
vn -0.4589 0.8860 -0.0672
vn -0.7926 0.6097 -0.0000
vn -0.7082 0.7060 -0.0000
vn -0.7248 0.6748 -0.1389
vn -0.7984 0.5813 -0.1571
vn -0.7285 0.6249 -0.2806
vn -0.7778 0.5267 -0.3429
vn -0.3447 0.5218 -0.7803
vn -0.2797 0.6203 -0.7328
vn -0.3477 0.8680 -0.3544
vn 0.1278 0.9918 -0.0000
vn 0.1045 0.9890 -0.1047
vn 0.7082 0.7060 -0.0000
vn 0.7926 0.6097 -0.0000
vn 0.7997 0.5793 -0.1577
vn 0.7262 0.6735 -0.1376
vn 0.4418 0.8971 -0.0000
vn 0.4585 0.8864 -0.0635
vn -0.0000 0.8971 -0.4417
vn 0.0672 0.8860 -0.4589
vn 0.1389 0.6748 -0.7248
vn 0.1571 0.5813 -0.7984
vn 0.2806 0.6249 -0.7285
vn 0.3429 0.5267 -0.7778
vn 0.7803 0.5218 -0.3447
vn 0.7328 0.6203 -0.2797
vn 0.3544 0.8680 -0.3477
vn -0.0000 0.6097 0.7926
vn -0.0000 0.7060 0.7082
vn -0.0000 0.9918 0.1278
vn -0.0000 0.8971 0.4418
vt 0.488556 0.109210
vt 0.977014 0.999901
vt 0.977014 0.890790
vt 0.000000 0.000000
vt 0.977014 0.866608
vt 0.977014 0.844781
vt 0.977014 0.878699
vt 0.488556 0.121301
vt 0.488556 0.155219
vt 0.488556 0.133392
vt 0.732785 0.500000
vt 0.000099 0.844781
vt 0.000099 0.866608
vt 0.000099 0.890790
vt 0.000099 0.878699
vt 0.000099 0.999901
s 1
f 5/1/1 6/2/2 8/3/3 11/4/4
f 9/5/5 7/6/6 12/6/7 14/5/8
f 10/7/9 9/5/5 14/5/8 15/7/10
f 8/3/3 10/7/9 15/7/10 11/3/4
f 4/8/11 5/1/1 11/1/4 18/8/12
f 1/9/13 2/10/14 17/10/15 16/9/16
f 2/10/14 4/8/11 18/8/12 17/10/15
f 3/11/17 13/11/18 16/9/16 17/10/15
f 14/5/8 12/6/7 13/11/19 3/11/20
f 15/7/10 14/5/8 3/11/20 19/4/21
f 15/7/10 19/4/21 11/3/4
f 18/8/12 19/4/21 3/11/17 17/10/15
f 11/3/4 19/4/21 18/8/12
f 24/1/3 25/2/2 27/3/22 30/4/23
f 28/5/24 26/6/25 31/6/26 33/5/27
f 29/7/28 28/5/24 33/5/27 34/7/29
f 27/3/22 29/7/28 34/7/29 30/3/23
f 23/8/30 24/1/3 30/1/23 37/8/31
f 20/9/6 21/10/5 36/10/32 35/9/33
f 21/10/5 23/8/30 37/8/31 36/10/32
f 22/11/34 32/11/35 35/9/33 36/10/32
f 33/5/27 31/6/26 32/11/36 22/11/37
f 34/7/29 33/5/27 22/11/37 38/4/38
f 34/7/29 38/4/38 30/3/23
f 37/8/31 38/4/38 22/11/34 36/10/32
f 30/3/23 38/4/38 37/8/31
f 1/9/2 16/9/2 31/6/2 26/6/2
f 16/9/2 13/11/2 32/11/2 31/6/2
f 13/11/2 12/6/2 35/9/2 32/11/2
f 41/12/39 42/6/39 47/5/40 43/13/40
f 35/9/2 12/6/2 42/6/2 41/12/2
f 46/3/41 44/14/41 45/15/42 48/7/42
f 48/7/42 45/15/42 43/13/40 47/5/40
f 44/14/41 46/3/41 40/2/2 39/16/2
f 35/9/2 41/12/2 20/9/2
f 7/6/2 42/6/2 12/6/2
